<svg width="100%"  version="1.1" id="Laag_1" xmlns="http://www.w3.org/2000/svg" xmlns:xlink="http://www.w3.org/1999/xlink" x="0px" y="0px" viewBox="0 0 1280 800" enable-background="new 0 0 1280 800" xml:space="preserve">
<g>
	<defs>
		<amcharts:ammap bottomLatitude="26.348125" rightLongitude="88.193752" topLatitude="30.430628" leftLongitude="80.053867" projection="mercator">
		</amcharts:ammap>
	</defs>
	<g>
		<path id="NP-BA" class="land" fill="#B3B3B3" stroke="#FFFFFF" stroke-width="0.5" d="M731.9,399.3l5.3,7.5l9.4-0.5l4.5-0.7l5.1-4.8l4.2-1.5 l8.3,0.6l7,3.5l4.4,4.2l3.1,2.1l9.8,6.2l4.6,3.4l13.6,9.5l2,6.6l3.1,9.9l2,5.8l12.9,4l0,0l-1.7,7l-4,3.2l3,14.8l-9.1,0.9 l-9.5,17.7l-6.7,4.3l0.8,14.2l-7.6,5.3l-5.5,0.5l0,3.9l-2.9,4.4l-9.3-0.7l-14-4.9l0,0l-20.6-7.8l-6.8-5l-0.2-11l-5.6-14.5 l-7.2-0.9l-11.8-5l-11.5,4.2l-4.4-2.2l-3,4.1l-8.2-0.9l-2.1-1.4l-0.5-2.9l-4.3-2.9l-5.1,1.1l-9.8-2l-0.4-1.7l3-3.8l-0.4-3.6 l3.4-3.8l0,0l4.4,4.1l6.3-2.6l-1.8-13.9l7.5-8.4l4.7-12.8l8-0.8l5.3-5.9l2-11.8l4-2.6l2.6-7.5l8-3.4h2l2.5-0.7l5.5-0.3 L731.9,399.3z" title="Bagmati"></path>
		<path id="NP-BH" class="land" fill="#B3B3B3" stroke="#FFFFFF" stroke-width="0.5" d="M305,294.3l2.6,0.9l-2.4,5l0.6,3l4.5,2.9l7.1-2.1 l3.5,0.9l2.4,4.1l10.6,1.3l5.8,5.1l4.9-3.2l3.6,1.1l4-1.2l2.4-2.4l12.5,4.6l3.3-1.8l5.3-9.7l14.8-8.4l14.9,2.1l-1.2,13.3l2.4,1.9 l8-2.5l8.8,2.6l0,0l-6,3.5l-0.5,7.8l-3,3.4l-10.7,5.8l-5.6,7.5l-4.6-0.7l-3.1,4l0.7,5.2l-9.3,4.4l-2.9,9.6l-13.9-3.3l-5.4,1.1 l-1.5,5.4l2.8,10.5l-6.5,8.3l1.7,7.7l-6.2,7.5l-3.1-0.1l-14-7.8l-3.8,3.6l-1.1,6.3l5.9,6.4l4.8-0.5l8,4.7l2.8,4.5l9.6,4.9l5.7,8.9 l9.5,2.8l1,4.4l4.2,2.5l0.9,10.2l-5.5-1.1l-10.1,3.4l0,0l-11.4-0.4l-5.5,9.1l-4.6-0.2l-6.5-5.2l-3.3-0.6l-12.4-11.4l-7.9-3.8 l-17.6-8.3l0.3-4.3l-6.4-7.5l-5.6-0.3l-0.2,3.7l-6,0.3l-0.1-2.7l-0.8-5.1l-9.3-10.4l-0.4-5.9l-2.5-4.2l-13.1-2.7l-4.3-2.7l0,0 l3.7-8l9.5-7.7l5.4-9.2l8.6-9.7l-6.7-16.5l-1.3-8.1l-2.6,0.7l-2.9,5l-3.9-2.6l0-3.7l-14.1-5.1l-4.1-6.8l12.9-3l13.3,7.9l9.7,0.8 l6.3-1.4l2,2.4l8.9-2.1l12,18.5l2.4,1.1l3.1-1l-5.3-10.4l-11.6-15.8l0-8l4.3-5.8l9.8-5.9L305,294.3z" title="Bheri"></path>
		<path id="NP-DH" class="land" fill="#B3B3B3" stroke="#FFFFFF" stroke-width="0.5" d="M585.5,272l4.1,0.9l2.3,0.4l2.8,0.6l3.1,0.8l5.3,0.5 l2.7,3l4.9,3.5l3.8,3.5l-6.3,11.2l-4.7,7.8l5.8,8.3l-1.4,15.1h-1l-3.9-0.8l-9.6,9.8l-10.1-2.1l-2.2,7.9l-11.8,7.4l0.1,3.8l6.1,9.2 l-0.7,1.6l-2.7-0.8l-4.1,2.3l1.8,8.7l-10.3,9.9l-4.9,8.8l5.2,2.2l2.7,3.1l1.7,7.9l4.9,3.2l-0.2,1.3l-2.3,3.8l-4.8-1.1l-1.1,10 l-3.4,3.3l-0.2,9.6l-3.6,4.5l-4.3,2.3l-5.5-1.9l0,0l-4.7-9l-6-3.1l-4.7,1.3l-4.7-2.3l-4-5.8l-11.8-3.8l-1.7-1.9l2.8-4l-0.2-4.1 l-5.4,0.2l-1.8-1.6l-17.9,3.2l0,0l-0.1-2.3l-5.6-6.3l-8.8-5l-6.6-7.3l-4.3-6.5l-0.1-1.8l3-0.6l-3.4-5l4.5-2.4l1.9-3.1l5.7,1.1 l1.2-2.5l-3.1-4.4l2.5-2.3l7.6,0.6l7.8-3.7l4.8-9.6l-0.6-3.5l0,0l1.1-1.1l4.7,3.2l9.4,1.5l24.5-10.2l2.1-11l13.4-16.6l1.3-12.9 l1.3-1.9l3.4-0.6l1.9-4.4l-4.8-1.3l5-5l3.5-4.2l9.8,0.2l2.5-2.2l6.1-4l6.2-4.4L585.5,272z" title="Dhawalagiri"></path>
		<path id="NP-GA" class="land" fill="#B3B3B3" stroke="#FFFFFF" stroke-width="0.5" d="M620.3,324.3l3.2,0.1l6.7,3.2l6.4,3.9l3.1,2.1l3,4.5 l-1.9,8.6l1.5,0l7.6,1.6l10.8-0.9l7.7,0.8l1.5,8.3l1.6,6.7l4.7,1.1l9.5,2.8l5.3,2l7.3-3.1l8-3.7l8.4-4.7l7-3l2.3,0.7l4.9,6.2 l-0.8,7.6l-3.4,13.7l-4.1,16.1v1l-9,3.4l-2.6,7.5l-4,2.6l-2,11.8l-5.3,5.9l-8,0.8l-4.7,12.8l-7.5,8.4l1.8,13.9l-6.3,2.6l-4.4-4.1 l0,0l-5.1-6.6l-4.8,0.4l-8.2,6.4l-9.6,3.1l2.2,8.1l0,0l-9.7-1.9l-2.6,2.5l-8.2-13.7l-55.2-3.6l-3.5-2.9l-6.3-1.8l-4.4-0.4l-4,1.8 l-9.5-4.1l-15.2,0.1l2.6-3.8l12.4-2.4l4.1-5.5l0,0l5.5,1.9l4.3-2.3l3.6-4.5l0.2-9.6l3.4-3.3l1.1-10l4.8,1.1l2.3-3.8l0.2-1.3 l-4.9-3.2l-1.7-7.9l-2.7-3.1l-5.2-2.2l4.9-8.8l10.3-9.9l-1.8-8.7l4.1-2.3l2.7,0.8l0.7-1.6l-6.1-9.2l-0.1-3.8l11.8-7.4l2.2-7.9 l10.1,2.1l9.6-9.8l3.9,0.8h1L620.3,324.3z" title="Gandaki"></path>
		<path id="NP-JA" class="land" fill="#B3B3B3" stroke="#FFFFFF" stroke-width="0.5" d="M849.9,445.6l10.8,0.6l4,4.2l8.5-2.9l-2.6,5.2l1.7,2.1 l6.3-3.3l5.1,2.2l1.5-2.9l-1.1-1.9l0,0l4.2,5.2l1.6,5.3l-1.7,7.7l3.1,8.4l-0.4,5.5l-9.6,4.4l-8.6,14.4l-4.1,2.3l-17,22.1l1.7,11 l-3,6l6,1.8l12.9,9.3l-2.7,8.5l1.7,9.1l-2.5,10.6l-7,3.1l-5.6,5.7l-4.8,0.4l-7.5-2.2l1.2,11.5l-1.3,6.6l6.5,10.9l-3.6,7.4l0,0 l-4.7,1.2l0.1-3.9l-8.2-3.2l-11.2-0.1l-2.2,1.3l-1.4,4.4l-11.2,5.9l0.4-6l-12.4-5.5l0.7-18.6l-11.4-10.2l-7.7,4.1l-15.1,8.6 l-5.8-1.2l-8.5,6.4l0,0l2.9-10.7l8.1-14.1l-1.6-9.2l1.8-5.3l8-7.9l2.1-13.8l-1.8-4.3l-4.3-3.6l-1.4-4.7l5.7-8.3l0,0l14,4.9 l9.3,0.7l2.9-4.4l0-3.9l5.5-0.5l7.6-5.3l-0.8-14.2l6.7-4.3l9.5-17.7l9.1-0.9l-3-14.8l4-3.2l1.7-7l0,0l7.1-4.9l-2.3-5.6l-2.3-6.1 l-2-6.5l11.2-11.2l1.2,7.2l1.7,5.1l1.4,8.7L849.9,445.6z" title="Janakpur"></path>
		<path id="NP-KA" class="land" fill="#B3B3B3" stroke="#FFFFFF" stroke-width="0.5" d="M317.5,122.5l11.5,2.2l22.1,5.1l6.1,1.5l5.4,1.2 l5.7,1.1l6.7,1.9l2,1l3.8,10.3l4.4,9.3l-1.7,11.9l17.3,5.3l5.9,2.4l6.8,1.7l5.3,2.3l5.4,5l2.9,4.4l11.1,9.9l5.8,6.5l7.8,7.3 l3.1,3.5l9,4l18.3,6.6l7.7,3l1.9,0.8l9.3,3.5l1.8,0.8l2.1,2.4l5,6.9l3.5,5.9l5.7,7.4l4.1,7.5l3.5,4.3l4.1,6.1l6.3,8.9l8.5,4l4,1.1 l-1,1l4.8,1.3l-1.9,4.4l-3.4,0.6l-1.3,1.9l-1.3,12.9l-13.4,16.6l-2.1,11l-24.5,10.2l-9.4-1.5l-4.7-3.2l-1.1,1.1l0,0l-22.8-10.5 l-17.9-0.2l-11.1-5.1l0.4-5.3l-7.5-9.9l-8.3-3.2l0,0l-8.8-2.6l-8,2.5l-2.4-1.9l1.2-13.3l-14.9-2.1l-14.8,8.4l-5.3,9.7l-3.3,1.8 l-12.5-4.6l-2.4,2.4l-4,1.2l-3.6-1.1l-4.9,3.2l-5.8-5.1l-10.6-1.3l-2.4-4.1l-3.5-0.9l-7.1,2.1l-4.5-2.9l-0.6-3l2.4-5l-2.6-0.9l0,0 l-6.7-4.2l-1.5-3.1l0.8-9.1l-2.8-3.8l13-12.4l4.5-0.1l3.4,3.7l0.5,3.3l1.9,0.8l7.9-3.6l7.7-8.5l1.1-4.6l-4.4-12.3l-0.5-11.3 l-2.5-2.2l-3.9-0.3l-1.2-7.4l0.3-2.9l4.3-2.9l1.1-2.9l1.3-10.1l3.1-2.2l-0.1-9.3l-10.1-1.5l-5.4-3.6l-8.4,2.7l-4.2-0.3l-9.6,4.6 l-0.5-12.2l-2.1-2.3l-4.8-2.3l-3.4,2.7l-2.8,0.1l-7.3-3.8v-3l1-8.5l8.6-1l6-7.6l1.5-20l0.5-5.4l0-2.4l4.9-0.1l4.2-1l10.7,7 l1.1-7.4L317.5,122.5z" title="Karnali"></path>
		<path id="NP-KO" class="land" fill="#B3B3B3" stroke="#FFFFFF" stroke-width="0.5" d="M955.5,465.7l8.9,0.3l7.3-2.3l8.6-0.2l8.8-0.9l1.4,0.7 l-0.7,2.3l4.5,0.8l13.6-6l1.5,6.5l3.3,0.1l8.2-3.2l0,0l-1.9,13.5l-7.6,10.4l-3.7-2.7l-4,11.7L998,500l-3.1,20.1l0.5,8.1l5.6,8.8 l5.3,3.1l13.3,1.9l9.7,5.6l-9.8,11.3l-9.1,4.8l-10.7,16.8l2.8,6.3l-0.6,2.9l18.3,11.2l-0.5,9.5l-3.9,11.1l1.6,6.8l-1.9,1.7 l4.4,17.3l0,0l-4.5,3.9l0.2,1.7l-4.5,0.3l-0.6,1.3l-2.2-0.2l-4.8-4.7l-10.1-2.7l-10.8,4.2l-1.4,6.1l-2,1.6l-3.2-3.1l-5.5-0.2 l-0.6-4.8l-12.2,0.6l-7.6-6l-2.4-17.4l-3.1-0.1l-3.5,6.9l-8.2,2.2l0,0l1.1-10.1l15-20.4l10-9.8l3-7.9l-2.2-2.7l-3.3-0.6l-9.1,2.3 l-6.2,4.1l-4.1-5l1.2-5.2l-2.7-5.4l-0.2-10.1l-4.6-3.3l-0.6-2.5l2.6-8l-2.7-9.5l4.8-1.4l4.5-5l-3.6-1.1l0.1-4.1l-3.9-4.3l-1.2-6.8 l4.1-5.9l1.8-15.9l3.2-6.4l2.2-11.5l-3.9-4.2l3.9-7.1l-4.2-11.3l0.8-8.1l0,0l4.1,0l8.4,8.1l4.9,2.3l1.6,2.3L955.5,465.7z" title="Koshi"></path>
		<path id="NP-LU" class="land" fill="#B3B3B3" stroke="#FFFFFF" stroke-width="0.5" d="M483.8,410.4l17.9-3.2l1.8,1.6l5.4-0.2l0.2,4.1l-2.8,4 l1.7,1.9l11.8,3.8l4,5.8l4.7,2.3l4.7-1.3l6,3.1l4.7,9l0,0l-4.1,5.5l-12.4,2.4l-2.6,3.8l15.2-0.1l9.5,4.1l4-1.8l4.4,0.4l6.3,1.8 l3.5,2.9l55.2,3.6l8.2,13.7l2.6-2.5l9.7,1.9l0,0l-4.4,5.9l-4.3,1.6l-1.7-1.3l-21.1,11.1l-4.9,7.8l-24.4,2.2l-1.1,2.1l5,1.4l-4,7.7 l0,0l-8.6,1.1l-2.7-1.4l-1.1,1.2l-0.5,2l5.8,6l-2.3,4.1l-29.5-16.3l-24.7-1.2l0.5,3.1l-1.9,3.4l1.7,3.9l-1.7,3.4l-3.9,4.3 l-5.3,1.4l-3.9-2.3l-0.7-4.4l-10.3-9.5l-18.8,0l-8.5-2.6l-2.9-3.7l-21.5-0.1l1.5-10.8l-2-3.8l0.7-2.5l-3.3-4l-0.3-8.7l-1.5,1.2 l0,0l-0.1-2.1l2.1-1.7l9.3,1.4l8-5.5l-9.6-4.4l3.2-8.3l4.6-2.9l21.8-2.5l-2.1-5.8l-5.3-3.3l1.3-8.6l10.8-9.6l-4.4-2.9l0.3-5.4 l-1.4-1.5L483.8,410.4z" title="Lubmini"></path>
		<path id="NP-MA" class="land" fill="#B3B3B3" stroke="#FFFFFF" stroke-width="0.5" d="M230.6,152.9l14.6-3l6.5,7.2l-1.4,8.1l3.4,2.6l0,0 l-11.3,7.5l-3,8.8l7.9,15.6l1.2,5.4l-2.7,5.1l-17.3,2.9l-15.2,6.9l0.9,11l-1.5,3.5l-2.2,0.6l0.5,3.5l4.3,2.9l0.5,4.1l5.2-0.1 l2.8,1.8l2,5.1l-6,7.8l-5,0.7l-4.3,2.7l1,6.7l-7.2,12.5l-14.2,6.6l-1.7,5.2l-3.4,1.8l1.5,3.3l-3.8,10.8l-1.2,20.8l4.5,11.2 l-0.4,8.6l0,0l-4.8,3.2l1.4,11.4l1.4,1.5l-1.2,1.5l-5.9-4l-0.7-4.3l-3.2-2.3l-8.1,0.3l-4.3-4.2l-1.1-4l-7.1-3.7l0-3.8l-6-0.9 l-9-8.2l-7.4-0.9l-0.5-11.9l4.2-8.3l4.5-3.3l-1.2-3.8l2.6-9.3l3.9-3.6l6.3,1.8l3.9-3.4l-2.3-9.9l5.6,2.8l1.7-16.5l-3.6-2.8 l-0.9-6.7l-3.4-1.9l0.7-4.3l4-3.2l1.6-2.8l1.6,0.7l4.4-4.8l-0.2-4.5l5.4-2.7l1.9-3.6l1.2-5.7l-3.4-3.7l-2.9-7.5l0.4-3.2l3.3-1.5 l0.9-4l3.3-2.1l6.8,0.2l1.3-2.2l6.2-5.6l1.4-8.1l3.2-4.1l9.5-1l4.6-5.2l2.7-0.3l2.9-7.2l11.3-9.1l-0.8-5.6l5.1-6.9l1.8-1.9 l0.3,5.9L230.6,152.9z" title="Mahakali"></path>
		<path id="NP-ME" class="land" fill="#B3B3B3" stroke="#FFFFFF" stroke-width="0.5" d="M1068.1,458l9.6,2.5l1.7,2l-1.9,4.2l1.6,4.1l-4.8,7.6 l-2.8,8.1l-5.9,10.7v3.3l-3.2,8.9l2.7,6.6l-4.1,7.9l2.4,5.9l-3.5,7.5l-2.1,15.3l-3,6.7l4,3.5l0.4,3.8l2.1,2.3l4.5,0.3l1,3.7 l4.9,2.8l-1.3,5l2.4,2.6l0,5l3.8,3.7l-0.9,2.9l1.9,5.4l0.2,10.3l-3.1,10.7l-3.2,4.3l0.1,3.7l-4,2.4l0.7,15.2l-7.2,5.9l-1.3,3.8 l-3.7,0.1l-0.7-3.9l-7.5-3.3l-4.5-8.8l-3.6,3l-1.1,3.5l-7.2-4.2l-2.6,7.6l-3.1-1.3l-0.6,1.4l-5.3-3.6l0,0l-4.4-17.3l1.9-1.7 l-1.6-6.8l3.9-11.1l0.5-9.5l-18.3-11.2l0.6-2.9l-2.8-6.3l10.7-16.8l9.1-4.8l9.8-11.3l-9.7-5.6l-13.3-1.9l-5.3-3.1l-5.6-8.8 l-0.5-8.1L998,500l5.5-3.3l4-11.7l3.7,2.7l7.6-10.4l1.9-13.5l0,0l2.8,1l2.2,0.7l2-0.5l4.1,0.8l3.3-1.2l3.7,0.7l3.2,1.2l3.5,0.4 l3.2-3.8l2.8-4.3l2.9-3.9l7.9,1.4L1068.1,458z" title="Mechi"></path>
		<path id="NP-NA" class="land" fill="#B3B3B3" stroke="#FFFFFF" stroke-width="0.5" d="M668.9,465.5l-3.4,3.8l0.4,3.6l-3,3.8l0.4,1.7l9.8,2 l5.1-1.1l4.3,2.9l0.5,2.9l2.1,1.4l8.2,0.9l3-4.1l4.4,2.2l11.5-4.2l11.8,5l7.2,0.9l5.6,14.5l0.2,11l6.8,5l20.6,7.8l0,0l-5.7,8.3 l1.4,4.7l4.3,3.6l1.8,4.3l-2.1,13.8l-8,7.9l-1.8,5.3l1.6,9.2l-8.1,14.1l-2.9,10.7l0,0l-12.9-2.5l-3.5-7l1.9-7.1l-19.9,1.1l4.9-4.1 l-11.2-3.6l1.1-2.7l-2.3-2.9l-7.1-1.4l-7.4-6.2l-4.7,3.1l-2.3-2.8l-1.7,1.3l-13.7-6.1l3.8-6.3l2.5-15.8l-9.1-16.1l-37.3-6 l-4.6-9.5l-5.3,1.3l-0.9-3.6l-6.5-1.5l-13.9,6.7l-11.3-2l3-5.7l-5-1.4l1.1-2.1l24.4-2.2l4.9-7.8l21.1-11.1l1.7,1.3l4.3-1.6 l4.4-5.9l0,0l-2.2-8.1l9.6-3.1l8.2-6.4l4.8-0.4L668.9,465.5z" title="Narayani"></path>
		<path id="NP-RA" class="land" fill="#B3B3B3" stroke="#FFFFFF" stroke-width="0.5" d="M423.1,311.8l8.3,3.2l7.5,9.9l-0.4,5.3l11.1,5.1 l17.9,0.2l22.8,10.5l0,0l0.6,3.5l-4.8,9.6l-7.8,3.7l-7.6-0.6l-2.5,2.3l3.1,4.4l-1.2,2.5l-5.7-1.1l-1.9,3.1l-4.5,2.4l3.4,5l-3,0.6 l0.1,1.8l4.3,6.5l6.6,7.3l8.8,5l5.6,6.3l0.1,2.3l0,0l-8.4,5.7l1.4,1.5l-0.3,5.4l4.4,2.9l-10.8,9.6l-1.3,8.6l5.3,3.3l2.1,5.8 l-21.8,2.5l-4.6,2.9l-3.2,8.3l9.6,4.4l-8,5.5l-9.3-1.4l-2.1,1.7l0.1,2.1l0,0l-4.7-0.1l-7.3,3.2l-16.3,2.6l-29.4-22.3l-9.5-2.6 l-5.9-7.4l0,0l10.1-3.4l5.5,1.1l-0.9-10.2l-4.2-2.5l-1-4.4l-9.5-2.8l-5.7-8.9l-9.6-4.9l-2.8-4.5l-8-4.7l-4.8,0.5l-5.9-6.4l1.1-6.3 l3.8-3.6l14,7.8l3.1,0.1l6.2-7.5l-1.7-7.7l6.5-8.3l-2.8-10.5l1.5-5.4l5.4-1.1l13.9,3.3l2.9-9.6l9.3-4.4l-0.7-5.2l3.1-4l4.6,0.7 l5.6-7.5l10.7-5.8l3-3.4l0.5-7.8L423.1,311.8z" title="Rapti"></path>
		<path id="NP-SA" class="land" fill="#B3B3B3" stroke="#FFFFFF" stroke-width="0.5" d="M909.6,430.7l2,7l2-0.3l3.8,3.6l6.2-1.4l0.9,2.6l6,3.1 l2,3.1l6,0.9l0,0l-0.8,8.1l4.2,11.3l-3.9,7.1l3.9,4.2l-2.2,11.5l-3.2,6.4l-1.8,15.9l-4.1,5.9l1.2,6.8l3.9,4.3l-0.1,4.1l3.6,1.1 l-4.5,5l-4.8,1.4l2.7,9.5l-2.6,8l0.6,2.5l4.6,3.3l0.2,10.1l2.7,5.4l-1.2,5.2l4.1,5l6.2-4.1l9.1-2.3l3.3,0.6l2.2,2.7l-3,7.9 l-10,9.8l-15,20.4l-1.1,10.1l0,0l-1.3,0.2l-0.3,3.5l-4.1,0.2l0,3.3l-6.3,2.8l-8.7-2.3l-3.9,4.3l-18.9-9.5l-4.1-5.7l-4.4-0.1 l-12.2-6.8l-6.2-1.5l0.3-1.4l-10.4,0.4l-3,3l-3.5-0.6l-0.5-2.5l-1.9,0l0,0l3.6-7.4l-6.5-10.9l1.3-6.6l-1.2-11.5l7.5,2.2l4.8-0.4 l5.6-5.7l7-3.1l2.5-10.6l-1.7-9.1l2.7-8.5l-12.9-9.3l-6-1.8l3-6l-1.7-11l17-22.1l4.1-2.3l8.6-14.4l9.6-4.4l0.4-5.5l-3.1-8.4 l1.7-7.7l-1.6-5.3l-4.2-5.2l0,0l-2.3-2.6l0.6-4.7l9-9.4l6.1,0.7l5.1-4L909.6,430.7z" title="Sagarmatha"></path>
		<path id="NP-SE" class="land" fill="#B3B3B3" stroke="#FFFFFF" stroke-width="0.5" d="M260.6,172.1l4,1.1l5.1-3.6l0,0l11.3,6.8l2.8-0.1 l3.4-2.7l4.8,2.3l2.1,2.3l0.5,12.2l9.6-4.6l4.2,0.3l8.4-2.7l5.4,3.6l10.1,1.5l0.1,9.3l-3.1,2.2l-1.3,10.1l-1.1,2.9l-4.3,2.9 l-0.3,2.9l1.2,7.4l3.9,0.3l2.5,2.2l0.5,11.3l4.4,12.3l-1.1,4.6l-7.7,8.5l-7.9,3.6l-1.9-0.8l-0.5-3.3l-3.4-3.7l-4.5,0.1l-13,12.4 l2.8,3.8l-0.8,9.1l1.5,3.1l6.7,4.2l0,0l0.2,1.2l-9.8,5.9l-4.3,5.8l0,8l11.6,15.8l5.3,10.4l-3.1,1l-2.4-1.1l-12-18.5l-8.9,2.1 l-2-2.4l-6.3,1.4l-9.7-0.8l-13.3-7.9l-12.9,3l4.1,6.8l14.1,5.1l0,3.7l3.9,2.6l2.9-5l2.6-0.7l1.3,8.1l6.7,16.5l-8.6,9.7l-5.4,9.2 l-9.5,7.7l-3.7,8l0,0l-5.2-1.6l2-2.6l-3-2.4l-4.7-0.4l-3.7-2l-3.8-3.7l-2-1.4l-3.2,0l-9.1-2.6l-1.8-5.4l-8-1.3l-4-8.5L191,357 l-0.4-4.4l-4.8-1.4l0,0l0.4-8.6l-4.5-11.2l1.2-20.8l3.8-10.8l-1.5-3.3l3.4-1.8l1.7-5.2l14.2-6.6l7.2-12.5l-1-6.7l4.3-2.7l5-0.7 l6-7.8l-2-5.1l-2.8-1.8l-5.2,0.1l-0.5-4.1l-4.3-2.9l-0.5-3.5l2.2-0.6l1.5-3.5l-0.9-11l15.2-6.9l17.3-2.9l2.7-5.1l-1.2-5.4 l-7.9-15.6l3-8.8l11.3-7.5l0,0L260.6,172.1z" title="Seti"></path>
	</g>
</g>
	<g>
		<defs>
			<amcharts:ammap bottomLatitude="18.153878" rightLongitude="134.775703" topLatitude="53.562517" leftLongitude="73.554302" projection="mercator"> </amcharts:ammap>
		</defs>
		<g>
			<path id="CN-54_2" class="land" fill="#CCCCCC" stroke="#FFFFFF" stroke-width="0.5" d="M1282-3"/>
			<path id="CN-54_3" class="land" fill="#CCCCCC" stroke="#FFFFFF" stroke-width="0.5" d="M1281,408.2l-5.8-4.2l-11.5,10.1l-0.5,6.6l-22.2,2.4 l-15.9,13.7l-3.8,9.3l-8,6.3l-14.7,11.3l-1.4,8.1l-11.7,21.5l-17.9,15.1l1.5,26.3l-21-16.3l-2.8-20.5l8.2-13.2l2.5-31.8l-4-13.9 l-9.5-8.1l-10.7-0.1l-3.3-4.4l-9.6,9.1l-30.1,12.7l-17.6-1.8l5.6,13.5l-22.2-5.4l-8.6,12.3l-26.6-2.9l-11.2,4.1l-2.2-7.2l-13.5,6 l-5.2-3.8l-32.5,3.6l1.3-4.9l-12.1-10.1l-12.6-2.7l-9.7-9l-6.2,1.2l-11.1-11.6l-21.8,10.9l1.2,13.3l-12.2,1.6l0.8-7.3l-8.3,2.8 l-16-5.7l-5.7-23.7L832.1,432l5.8,18.6l-7.2,4.6l-13-4.1l-6.7-22.4l-38.3-25.9l-14.1-2.1l-7.1,6l-14.8,0.2l-5.6-7.7l-10.4,1 l9.1-37.4l-7.1-7.8L691,369.4l-19.4-5.9l-3.8-14.9l-27.7-1.4l1.9-9.6l-4.1-5.5l-16.1-8.1l-13.6,3.8l0.8-15.5l-5.7-8.2l11.2-19.3 l-11.7-8.5l-20.6-4.9l-15.3,10.1l-8.5,0.4l-9.3,8.5l-11.5-5l-34.2-49.6l-45.8-16.8l-39.9-39.6L383,168l1.4-11.2l-7.1-20.3 l-59.5-14l-5.7,0.9l-1.1,7.4l-10.8-6.9l-8.8,1.2l-2.5,28l-5.4,6.9l-8.6,1l-1,11.5l-6.6,3.8l-13.9-8.6l-3.2-2.5l1.4-7.9l-6.2-6.6 l-15.1,2.7l-1.9-1.7l-0.1-5.2l4.3-3.6l-37.5-29.6l-5.7,3.4L153,100.6l-4.5-12.4l4.5-6.8l-7.5-11.3l-6,4.1l-6.9-8.7l-14.9-6.4 l-7.3-8.8l-12.6-5.6l-18.3,8.1l-9.6-12.5l-9.2,0.3L57,30.6l-9.5-4.1l-4.6-12.1L32.5-2L1281-1"/>
		</g>
	</g>

	<g>
		<defs>
			<amcharts:ammap bottomLatitude="26.697582" rightLongitude="92.125782" topLatitude="28.232795" leftLongitude="88.750882" projection="mercator"> </amcharts:ammap>
		</defs>
		<g>
			<path id="BT-11" class="land" fill="#CCCCCC" stroke="#FFFFFF" stroke-width="0.5" d="M1198.4,465.5l2.3,4l3.6,0.9l-1,1.6l0.1,1.3l2.5-0.6 l0.5-1.3l4.1,1.4l1-1.7l1.7-0.9l1.2,0l1.9,1.5l1.6-1.6l3.3-1.1l0.4,3l-0.8,2.2l0.6,1.4l-0.5,1.4l2.3,3.2l-3.6,3.4l1.2,1.1l2-1.2 l5,5.8l1.5,0.6l-0.8,1l1.3,2.9l3,2.5l-1.7,1.5l0.2,4.8l-1.6,6.1l0.4,2.4l-0.6,3l0.8,1.2l1.6-0.2l2.2,1.2l0.4,2.5l-1.4,2l0,1.4 l4.5,3.1l-0.1,3.9l0,0l0,0l0,0l-0.7,3.9l-1.5,1.8l-1.8,5.1l-0.2,1.7l0.8,2.4l-1.1,1.4l-5.7-0.9l-5.2-4.1l-3,1.7l-6.2,0.1l0,0 l-1.2-3.1l-0.2-5.8l0.9-1.1l3.1-1l2.5-3.1l-2.4-2.6l-0.7-2.5l-3.3-3.5l-1.6-4.5l-3-3.2l-0.1-2.8l-4-2.2l-1.1-7.4l-1-1.2l-1.1-4.8 l-2.6,0.8l-2.7-2.3l-3.4-0.1l-0.6-0.9l-1.8-0.5l-0.3-1.8l-2.6-1.6l0,0l1-0.9l-0.2-1.1l1.5-0.8l0.2-2.4l1.7-1.8l1.6,0.3l0.8-3.5 l1.8-0.8l0.7-2.7l2.8-0.9l0.7-2.6l-0.8-2L1198.4,465.5z"/>
			<path id="BT-12" class="land" fill="#CCCCCC" stroke="#FFFFFF" stroke-width="0.5" d="M1237.6,529.3l1.6,0.5l1.6,2.2l0.3,3.8l1.7-0.4 l4.7,1.7l-0.2,1.5l-3.8,1.8l-1.3,1.6l-0.2,2.6l-1.5,1.4l1.5,0.3l1.1,2.4l2.2,2.4l1.5,0.8l1.7-0.5l0,0l1.7,2.4l1.8,7.3l2.4-0.2 l0.8,0.6l-0.7,5l1.2,0.4l3.2-1.2l3,0.4l2.3,4.2l1.4,8.7l2.4,0.5l0.2,0.7l-1.1,1.5l0.5,2.3l2.2,2l-0.3,1.5l-4.3-0.1l0.3,2.6 l-0.8,0.9l0.2,1.6l-0.7,0.2l0.4,1.8l-1.2,1.2l0.1,2.5l-1-0.8l-0.4,2.2l-1.3-0.3l-2.4,4.5l0.2,3.6l1.8,0.9l0,0l-3.5,1.5l-2.7-1.8 l-1.6,0.4l-2.1-0.9l-1.8,3.1l-2.8-0.8l-1.1,0.9l-0.7-1.9l0.8-1.4l2.4-1.3l1.1-2.9l-0.3-1.1l-1.1-0.8l-2.2,0.8l-0.4-1.1l-5.6-1.9 l-1.2-2.4l-1.6,0.7l-4.2-0.2l-5.3,1.4l-1.6-1.8l-0.4-2.8l-6.9-0.9l-0.5-2.4l-1.9-0.3l0,0l0.5-2.3l-0.6-1.2l-1.9,0l-2.8,1.4 l-0.3-0.7l0.7-1.6l-0.9-1l0.4-1.5l-1.7-0.9l-1.1,0.3l-1.9-1.9l-1.6,0.8l-1.1-1.8l0.3-1.4l-0.7-2.2l2.1-0.7l3.7-3.7l2.5-5.3 l-1.3-2.2l0.4-4.6l0,0l-0.6-3l3.9-2.5l-0.1-2.6l3.4-3.9l-2.2-2.3l-1-3l0,0l6.2-0.1l3-1.7l5.2,4.1l5.7,0.9l1.1-1.4l-0.8-2.4 l0.2-1.7l1.8-5.1l1.5-1.8L1237.6,529.3z"/>
			<path id="BT-13" class="land" fill="#CCCCCC" stroke="#FFFFFF" stroke-width="0.5" d="M1185.9,487l2.6,1.6l0.3,1.8l1.8,0.5l0.6,0.9l3.4,0.1 l2.7,2.3l2.6-0.8l1.1,4.8l1,1.2l1.1,7.4l4,2.2l0.1,2.8l3,3.2l1.6,4.5l3.3,3.5l0.7,2.5l2.4,2.6l-2.5,3.1l-3.1,1l-0.9,1.1l0.2,5.8 l1.2,3.1l0,0l1,3l2.2,2.3l-3.4,3.9l0.1,2.6l-3.9,2.5l0.6,3l0,0l-3.2,0.3l-2.7-0.8l-2.3,0.5l-1.7,2l-0.1,1.6l-1.9,3.4l-1.3,0.4 l-3.1-3.6l-2.2-4.6l-2.3,5.3l-3.6,1.9l-1.3-0.1l-1.1-1.4l-1.2-0.1l-2.5-1.9l-0.2-1.6l-4.5-3l-1.4-3.9l-4.3-1.8l0.9-5.2l-0.3-3.2 l-3.1-3.3l-4.8-4.6l1.7-5.7l3.8,1.8l1-2.7l1.4-1l-0.8-3.3l-2.5-2l0.4-5.5l-0.6-2.2l1.5-2.3l-0.3-1.8l2.6-3l-1.5-3.9l1.8-1.5h1.7 l-1.2-3.1l4.1-3.1l0.2-2.2l0.7-0.7l0-2.9l4.7-3l3.7,0.8l0.6-1.1L1185.9,487z"/>
			<path id="BT-14" class="land" fill="#CCCCCC" stroke="#FFFFFF" stroke-width="0.5" d="M1149.1,539.5l12.2-3.6l4.8,4.6l3.1,3.3l0.3,3.2 l-0.9,5.2l4.3,1.8l1.4,3.9l4.5,3l0.2,1.6l2.5,1.9l1.2,0.1l1.1,1.4l1.3,0.1l3.6-1.9l2.3-5.3l2.2,4.6l3.1,3.6l1.3-0.4l1.9-3.4 l0.1-1.6l1.7-2l2.3-0.5l2.7,0.8l3.2-0.3l0,0l-0.4,4.6l1.3,2.2l-2.5,5.3l-3.7,3.7l-2.1,0.7l0.7,2.2l-0.3,1.4l1.1,1.8l1.6-0.8 l1.9,1.9l1.1-0.3l1.7,0.9l-0.4,1.5l0.9,1l-0.7,1.6l0.3,0.7l2.8-1.4l1.9,0l0.6,1.2l-0.5,2.3l0,0l-3.5,2.4l-5.4,2.2l-4.6,2.4 l-14.4,1.4l-3.6-5l-0.7-3.3l0-2.7l-4.7-2.1l-2.9-4.5l-6.5,2.3l-3.7-3.6l1.7-3.6l-3.2-2.9l-5.8,6l-0.1-20.7l-13.5-5.2l3.8-5.8 L1149.1,539.5z"/>
			<path id="BT-15" class="land" fill="#CCCCCC" stroke="#FFFFFF" stroke-width="0.5" d="M1237.6,529.3l0.1-3.9l-4.5-3.1l0-1.4l1.4-2l-0.4-2.5 l-2.2-1.2l-1.6,0.2l-0.8-1.2l0.6-3l-0.4-2.4l1.6-6.1l-0.2-4.8l1.7-1.5l-3-2.5l-1.3-2.9l0.8-1l-1.5-0.6l-5-5.8l-2,1.2l-1.2-1.1 l3.6-3.4l-2.3-3.2l0.5-1.4l-0.6-1.4l0.8-2.2l-0.4-3l-3.3,1.1l-1.6,1.6l-1.9-1.5l-1.2,0l-1.7,0.9l-1,1.7l-4.1-1.4l-0.5,1.3 l-2.5,0.6l-0.1-1.3l1-1.6l-3.6-0.9l-2.3-4l0,0l1.5-3.3l3.7-1.9l0.4-2l3.3-3.2l1.6-0.5l2.6,0.5l0.8-1.4l6-4.5l1.6-3.9l1.6-1.1 l-0.2-0.9l0.9-1.3l1.9-1.1l1.9-3.7l-0.2-3.3l0,0l3.6,1l2.5,2.5l2.7,0.5l1.1,2.7l-0.4,3.5l0.5,1.4l2.9,2.2l4.1,1.2l-0.3,1l-3.1,1 l-0.8,2.1l-1.9,1.4l-2.8,3.8l1.1,2.9l-0.7,1.6l0,2.9l-1.5,1l0.7,1.4l2.5,1.9l2.4-3.9l3.2,0l1.5,4.4l-0.4,1.1l1.5,1.5l4,1.3l0,0 l0.3,2.7l2,0.6l0.8,1.8l-1,7.8l1.2,2.2l1.4,0.8l1.5,4.9l1.6,0.6l1,1.4l0.4,1.4l-0.5,1.5l0.6,1.7l2.3,1.1l0.4,1.8l1.8,1.4l1.6,2.9 l0,0l-1,5.3l1.3,2.2l-7,5.8l2.8,2.3l-0.8,1.9l0.7,3.9l-0.7,5.2l0,0l-1.4-0.3l-0.5,2.3l-1.3,1.2l-0.1,1.5l-2.3,0.6l-3,2l-1,4.7 l0.3,1.7l-1,2.3l0,0l-1.7,0.5l-1.5-0.8l-2.2-2.4l-1.1-2.4l-1.5-0.3l1.5-1.4l0.2-2.6l1.3-1.6l3.8-1.8l0.2-1.5l-4.7-1.7l-1.7,0.4 l-0.3-3.8l-1.6-2.2L1237.6,529.3z"/>
			<path id="BT-22" class="land" fill="#CCCCCC" stroke="#FFFFFF" stroke-width="0.5" d="M1281.1,609.4l-3.8-0.3l-3.5-1.3l-0.7,5.1l-6.1-1.6 l-5.6,1.3l-0.6-2l-1-0.5l0.6-1.2l-0.5-0.7l0,0l-1.8-0.9l-0.2-3.6l2.4-4.5l1.3,0.3l0.4-2.2l1,0.8l-0.1-2.5l1.2-1.2l-0.4-1.8 l0.7-0.2l-0.2-1.6l0.8-0.9l-0.3-2.6l4.3,0.1l0.3-1.5l-2.2-2l-0.5-2.3l1.1-1.5l-0.2-0.7l-2.4-0.5l-1.4-8.7l-2.3-4.2l-3-0.4 l-3.2,1.2l-1.2-0.4l0.7-5l-0.8-0.6l-2.4,0.2l-1.8-7.3l-1.7-2.4l0,0l1-2.3l-0.3-1.7l1-4.7l3-2l2.3-0.6l0.1-1.5l1.3-1.2l0.5-2.3 l1.4,0.3l1,0.2l4-1.9l2.2,0.1l2.4,1.9l4.2-1.1l0.9,1.5l1.4,0.4l1,2.1l4.2,2.1"/>
			<path id="BT-23" class="land" fill="#CCCCCC" stroke="#FFFFFF" stroke-width="0.5" d="M1280.9,501.7l-1.9,0.2l-0.7,0.9l0.5,2.1l-6.1,2.5 l-2.7-0.6l-0.9,1l-5.7,0.8l0,0l-1.6-2.9l-1.8-1.4l-0.4-1.8l-2.3-1.1l-0.6-1.7l0.5-1.5l-0.4-1.4l-1-1.4l-1.6-0.6l-1.5-4.9l-1.4-0.8 l-1.2-2.2l1-7.8l-0.8-1.8l-2-0.6l-0.3-2.7l1-1.7l1.9,0.3l1.3-0.6l3.2,1.3l3-0.4l1.9-1.2l-0.5-1.3l1.1-0.4l2.1-3.1l1.8,0.7l1,2.1 l1.7-1l0.8-2.3l4-3.6l2.3-4.7l2-1.1l3-0.2l2.4-1.6"/>
			<path id="BT-24" class="land" fill="#CCCCCC" stroke="#FFFFFF" stroke-width="0.5" d="M1279.9,540.4l-4.2-2.1l-1-2.1l-1.4-0.4l-0.9-1.5 l-4.2,1.1l-2.4-1.9l-2.2-0.1l-4,1.9l-1-0.2l0,0l0.7-5.2l-0.7-3.9l0.8-1.9l-2.8-2.3l7-5.8l-1.3-2.2l1-5.3l0,0l5.7-0.8l0.9-1 l2.7,0.6l6.1-2.5l-0.5-2.1l0.7-0.9l1.9-0.2"/>
			<path id="BT-GA" class="land" fill="#CCCCCC" stroke="#FFFFFF" stroke-width="0.5" d="M1282.1,455.7l-2.4,1.6l-3,0.2l-2,1.1l-2.3,4.7l-4,3.6 l-0.8,2.3l-1.7,1l-1-2.1l-1.8-0.7l-2.1,3.1l-1.1,0.4l0.5,1.3l-1.9,1.2l-3,0.4l-3.2-1.3l-1.3,0.6l-1.9-0.3l-1,1.7l0,0l-4-1.3 l-1.5-1.5l0.4-1.1l-1.5-4.4l-3.2,0l-2.4,3.9l-2.5-1.9l-0.7-1.4l1.5-1l0-2.9l0.7-1.6l-1.1-2.9l2.8-3.8l1.9-1.4l0.8-2.1l3.1-1l0.3-1 l-4.1-1.2l-2.9-2.2l-0.5-1.4l0.4-3.5l-1.1-2.7l-2.7-0.5l-2.5-2.5l-3.6-1l0,0l2.3-1.6l-1.2-3.2l1.7-1.1l1.1-2.7l2.6-2.6l0.4-2.3 l2.8,1l0.8-0.3l1.6-1.8l0-1.8l2.5-1.3l2.6-3.9l0.3-2.2l2-0.9l1.6,0.7l1.7-1.4l2.2,0.9l3-2.4l5.4,1.8l0.9-2.8l0.8-0.2l1.6,1.1 l1.9-1.5l0.5-1.9l-0.7-2.2l2.2-1.4l1.2-2.5l1,1.6l2.4-0.1l1.5,2.2l2.9-0.6l4.2,7.1l1.5,0.3"/>
		</g>
	</g>
	<defs>


		<amcharts:ammap bottomLatitude="6.754302" rightLongitude="97.415614" topLatitude="37.051825" leftLongitude="68.186846" projection="mercator"> </amcharts:ammap>
	</defs>
	<g>
		<path id="IN-WB" class="land" fill="#CCCCCC" stroke="#FFFFFF" stroke-width="0.5" d="M1035.6,805.7l3.9-5.7l-8.4-7.2l0.6-5.3l-2.7-0.8 l-0.8-3.6l2.6-5.2l3.2,1.4l2.9-4l3.4-0.1l1.8-6.7l2.3,1.5l3.1-4.2l7,1.5l0.1,2.9l2,1.1l0.4-2.2l2.3,3.2l5,0.7l0.3-3.1l-4.3-4.3 l-1.7-6.6l3.9-6.1l-2.2-0.5l1.5-7.1l-10.2-4.5l-3.3-6.2l-3.9,0.2l1.4-5.9l-3.1-1.8l3.2-3.1l-10.2-2.6l-2.2-5.4l3-3.1l1.4-14.4 l8.2-6.1l2.1,2.9l0.8-2l3.5,0.4l-0.5-9.3l5.7,1.5l2.8-4.9l3.8,0.3l8.7-10.2l8.1-3.8l9-9.5l-2.8-3.6l-3.5,0.8l-0.8-2.5l4.4-3.7 l-4.5-3.3l-0.3-3.8l-3.8,0.6l-1.7-2.4l6.3-5.5l-0.2-2.6l-7.3,1.9l-2.7,3.5l-5.4-5.1l3.8-2.7v-3l3.7-5.8l3.2-9.8l-1-10l-1.9-6 l1.2-3.3l-4.3-3.4l0.1-4.9l-2-1.9l0.7-5.6l-4.9-2.5l-0.8-4.1l-4.6-0.2l-1.8-2.6l-0.2-3.1l-4.4-3.3l3.2-9.6l0.4-6.4l6.7,2.4l1.3,7.8 l5.9,3.3l6.8-2.5l4.3,2.2l8.4-1.2l2.2,3.1l12.6,3.1l11.4-9l-1.1-3.7l4.4-1.4l7,0.1l4.3,3.4l3.2-2.4l4.7,5.5l3.2-1.3l0,0l13.7,5.2 l0.6,20.7l5.1-5.9l4,3.7l-1.6,3.4l2.6,2.4l7.3-2.1l2.5,4.8l5.1,1.3l1.4,7.6l3.4,3.7l14.5-1.2l14.1-6.5l1.6,3.3l6.8,0.9l1.2,3.6 l11.6-1.2l7.3,5.1l2.7-0.5l1.1,2.3l-4.8,4.7l2.2,1.2l3.1,0.1l1.8-2.9l6.1,2.4l3.5-1.9l2.1,4.9l3.8-2l5.8,1.5l0,0l2.3,7.2l-2.2,3.4 l2.4,5.2l-1.8,0.8l-1.1,11.9l2.1,3.7l-5,8.4l2.3-0.8l1.2,2.4l-8.7,4.1l-0.1,3l-3.5,1.2l0.9,4.2l-4.7-2.2l2.3,4.6l-1.4,1.7l-2.4-1.5 l2.8,4.2l-3.7,2.8l4,0.7l-4.3,3.1l4.6,1.9l-1.8,1.2l0,0l-2.3-0.3l-2.6-4.4l-0.4-2.3l-4.1-1.2l2.7,6.9l-4.8-0.3l-0.7,3.3l-2.2-0.5 l4.4,5l-4.2,2.4l1.9,1.6l2.3-2.4l2.3,5.7l-8.3,5.2l-0.1,7.4l-4.3-0.3l-0.1-4.6l-12.1-0.4l-1-4.9l-3.6,5.1l-5.3-0.5l-8.1-5.1 l0.2-2.2l-2.7,0.3l1.2-3.7l-4.9-4.1l-7.9-2.1l-2.5-5.5l0.7-7.3l-4.5-6.2l4.2-5.1l-6.2-0.1l1.9-2.3l-2.4-3.6l0.8-4.4l-6.1,0.2 l-8.9-8.6l-1.5,4.5l-2.1-0.9l-2.6,3.2l1,5.6l5.1,0.5l0.6,1.5l2.7,0.3l1.9,3.1l-1.8,3.2l4.8,2.5l3.7-1.1l0.5,5.1l-11.5,1.8l-4.1-6.2 l-5.4-0.4l-2.3,1.9l2,5.1l-4.5,0.6l-3.2-3.4l0.3-5.4l-2.6-1.6l-4.3,1.7l-1.4-6.9l-5.2,2.5l-2.6-6.1l2.4-1.1l-9.1-6.2l-0.4-4.7 l-3-0.1l0.2,3l-4.6-1l0.5-4.2l-4,0.9l-4.7-7.9l-5.9-0.7l-2.3-11.5l-4.4,5.4l-4.9,15.3l2.4,4.2l1.4-5.4l13.4,3.4l4.8,13.4l-4.4,1.4 l-3.4-3.2l-2.3,4.8l-3.6,0.9l1.1,1.9l-7.5,4.5l0.1,8.1l-11.9,4.1l-8.1,5.8l-2.3,8.9l2.8,1l-1.4,5l1.6,1.1l-5,1.6l-6.6,13.1l2.5,3 l1,12.3l4,3l4-3.3l2.6,1.8l7.1-3l0.2,3.7l12.4,8.9l3.3,5.7l5.8,1.2l-1.2,8.4l6.2,2.1l-0.4,3.1l9.5,6.9l3.6-1l4.7,4.8l5.7,0.9 l1.4-3.6l6.7,0.6l-0.7-3.8l5.5,0.2l3.3,6.6l-2.6,8.1l3.3,2.1l-0.2,3.9l5.2,5.3l2.1-1.7l2.2,4.2l9.9,1.5l-6.3,4.4"/>
		<path id="IN-UT" class="land" fill="#CCCCCC" stroke="#FFFFFF" stroke-width="0.5" d="M-3,0h36.7l9.5,14.2l2.4,8l3.7,5.3l7.6,2.5l3.6,9.7 l9.2-0.2l6.5,8.6l3.5,4.1l7.8-5.6l5.9,0.3l4.3-3.1l7.3,3.8l5.8,2.8l7,8.4l15,6.4l6.9,8.5l6.3-4.4l3.9,6.5l2.8,3.8l0.7,1.6l-2,3.3 l-2.6,3.6l2.3,7.3l1.8,4.7l10.4,4.5l7.3,3.4l3.7,1.4l14.1,6.8c0.3,0.2,0.8,0.2,1.1,0l6.1-3l17.7,10.7c0.1,0.1,0.2,0.1,0.2,0.2 l8.3,10c0.1,0.1,11.9,8.9,11.6,9l-6.1,3.9l-4.9,7l0.4,5.7l-11.4,9.9l-3.1,6.9l-2.7,0.7l-4.1,5.3l-9.4,0.4l-3.9,4.2l-0.9,8.4 l-7.2,7.4l-6.4-0.5l-3.9,2.9l-0.5,3.8l-3.4,1.4l-1,3l2.9,7l3.2,3.7l-0.4,5.8l-2.4,4.4l-5.2,2.1l-0.2,4.5l-4.3,4.5l-1.2-0.8 l-1.9,3.1l-4.2,3.3l-0.1,4.6l3.5,1.9l0.4,6.5l3.7,3.3l-1.7,15.9l-5.3-2.6l2.5,10.1l-3.7,3.5l-7.6-1.5l-3,2.6l-3.1,9.4l2,4.4 l-4.9,3.3l-3.6,8.4l-0.4,9.9l1.7,6.2l-2.1,6l-5.3,2.9l-5.3-2.3l-3.9-7l1.4-2.2l-7.1-0.9l4.1-1.3l-2.5-3.4l-3.4-0.1l-1,4.3l-3.8,0.9 l2.9-7.6l-4-3.8l-7.2,1.5l-5.3,4.3l-6.1-2.7l-7.3,3l-1.7-6.2l-3.4,3.9l-11.2,1l-1.1-10.1l-2.8-0.6l-2-4.4l-0.9,2.4l-6.2-0.1l-11-10 l-5.3,0.8l0.8-3.8l-3.3-2.4l-0.7-7.9l-12.1-5.7l-1.2,7.2l-6.4-6.5l-2.1,2.3L0,288.7"/>
		<path id="IN-UT" class="land" fill="#CCCCCC" stroke="#FFFFFF" stroke-width="0.5" d="M0.1,0"/>
		<path id="IN-UP" class="land" fill="#CCCCCC" stroke="#FFFFFF" stroke-width="0.5" d="M-0.4,288.7l5.1,0.1l2.1-2.3l6.4,6.5l1.2-7.2l12.1,5.7 l0.7,7.9l3.3,2.4l-0.8,3.8l5.3-0.8l11,10l6.2,0.1l0.9-2.4l2,4.4l2.8,0.6l1.1,10.1l11.2-1l3.4-3.9l1.7,6.2l7.3-3l6.1,2.7l5.3-4.3 l7.2-1.5l4,3.8l-2.9,7.6l3.8-0.9l1-4.3l3.4,0.1l2.5,3.4l-4.1,1.3l7.1,0.9l-1.4,2.2l3.7,6.9l5.8,2.5l5.3-3.2l2.3-5.5l-1.3-5.6 l6.4,1.1l10,9l5.5,0.1l0.4,4.7l7,3.7l0.7,3.8l4,3.9l7.9-0.7l4.2,2.8l0.4,4.3l4.7,3.2l1.6-0.5l-1-1.6l-1.1-11.8l4.9-3.1l4.6,2l1,3.4 l8.5,1.7l3.6,8.2l8,0.8l1.4,5.4l8.9,2.6l4.2,0.3l5.8,5.6l3.7,1.9l4.5-0.6l3.4,2.7l-3,3.1l5.2,1.8l4.2,2.2l13.6,2.5l2.2,4.1l1.1,5.8 l8.8,11.2l1,5.5l-0.2,2l6.2-0.2l0.4-3.6l5,0l6.7,7.8l0.4,4.7l24.9,11.7l14.1,11l7.2,6.1l5.8,0.7l4.9-9.1l11.6,0.7l6.4,7.7l8.9,1.9 l29.9,22.7l30.1-7.7l4.4,19.5l-0.9,10.3l20.6,0l10.6,6.3l19.9,0.4l10.3,9.5l0.9,4.3l6.5,2.2l4.3-2.6l3.5-5.9l-1.7-4.2l2.1-4l-1-1.9 l25.5,1.1l10.2,5.3l19.1,10.6l0,0l-1.4,1.7l3,1.5l7.2-1.9l1,2.8l-3.2,5.9l6.6,3.2l2.8,4.6l-4.6,14.2l9.4-0.3l-3.5,3.5l5.8,3.2 l0.7,10.9l-2.5,2.5l2.6,1.4l0.5,5.3l4.4,1.9l1.2-3.1l4.7,1.7l-1.1,4.2l4.3,2.8l4.7-4.8l3.7,1.1l1.3,7.1l-3.2,6.8l1.1,2.3l1.6,1.3 l5.9-3.2l3.2,9.1l8.9,1.7l1.4,5.8l-16.5,3.7l-22.1-5.7l0.1,5.7l-4,7.4l-8.5,1.5l-1.4,3.1l-7-1.3l0,9l9.3,2.1l3.4-1.8l7.1,8.4 l11.5,1.4l1.2,7.5l-2.6,9.4l-5.4-2.1l-3.9,5.4l-7.9-2.6l0.8,12.6l3.6,6l4.9,0.4l8.9,9.4l-0.1,4.5l4.1-1.2l11,7.1l6.4-1.6l6.6,3.7 l1.7,5.1l12.2,1.9l-0.2,5.7l3.4-0.4l7.4,5.7l-2.3,4.4l3.5,4.3l-8.7-1.1l-0.4,6.9l-2.4-1.2l0.5-4.4l-1.3,5.6l-4.2,0.9l-4.6-4.8 l-5.4,2l-2.5-6.5l-5.6,0.5l-1.5,9.6l-4.1-0.7l0.2,2.1l-9.6-1.1l-1-4.5l-5.4-3.6l-6.2,1.4l-2.9,3.3l0.8,7.7l-18.5,10.4l-7.7,11.2 l-4.7,1l3.3,3.8l-5.1,0.7l0.6,2.7l-4.4,3l-3.4-3l-3.3,3.2l-1.1-1.3l-2.2,2.3l1.6,0.9l-4.5,0.4l-3.2,5.1l-4.8,8.9h-7.9l-6.2,1.3 l-532.9,0.4"/>
		<path id="IN-SK" class="land" fill="#CCCCCC" stroke="#FFFFFF" stroke-width="0.5" d="M1131.1,427.5l2.5,3.3l9.8,0.1l9.5,8.2l1.4,9.5l1.9,2.1 l2.8,8.2l-3.7,5.9l-0.9,19.5l-9.2,13.7l4.9,21.1l13.1,10.4l-2.7,6.8l-11.4,3.6l-1.5,8.2l-4.2,5l0,0l-3.2,1.3l-4.7-5.5l-3.2,2.4 l-4.3-3.4l-7-0.1l-4.4,1.4l1.1,3.7l-11.4,9l-12.6-3.1l-2.2-3.1l-8.4,1.2l-4.3-2.2l-6.8,2.5l-5.9-3.3l-1.3-7.8l-6.7-2.4l0,0 l6.1-15.4l-2.9-4.6l0.6-4.6l3.9-2.8l-4.2-9.2l17.8-38.9l-2.8-3.9l3.3-2.3l-0.6-2.1l-8-3.7l-0.7-9.2l1.8-1.7l5.8,2.6l4.8-3.2 l1.7,2.6l11.8-5.4l5.2,1.5l10.8-8.9l6.5,0.9l1.8-6.1l7.2-2.5l1.5,0.6L1131.1,427.5z"/>
		<path id="IN-ML" class="land" fill="#CCCCCC" stroke="#FFFFFF" stroke-width="0.5" d="M1285,796.6l-14.9,0l0.5-0.9l-2-6.9l3.9-14l1-1 l-0.1-1.7l-0.1-7.3l12.1-5.6"/>
		<path id="IN-BR" class="land" fill="#CCCCCC" stroke="#FFFFFF" stroke-width="0.5" d="M977.6,807.2"/>
		<path id="IN-BR" class="land" fill="#CCCCCC" stroke="#FFFFFF" stroke-width="0.5" d="M985.5,806.6"/>
		<path id="IN-BR" class="land" fill="#CCCCCC" stroke="#FFFFFF" stroke-width="0.5" d="M549.3,805l-5.1-4l3.8-7.9l3.2-5.1l4.5-0.4l-1.6-0.9l2.2-2.3l1.1,1.3l3.3-3.2l3.4,3l4.4-3l-0.6-2.7l5.1-0.7l-3.3-3.8l4.7-1l7.7-11.2l18.5-10.4l-0.8-7.7l2.9-3.3l6.2-1.4l5.4,3.6l1,4.5l9.6,1.1l-0.2-2.1l4.1,0.7l1.5-9.6l5.6-0.5l2.5,6.5l5.4-2l4.6,4.8l4.2-0.9l1.3-5.6l-0.5,4.4l2.4,1.2l0.4-6.9l8.7,1.1l-3.5-4.3 l2.3-4.4l-7.4-5.7l-3.4,0.4l0.2-5.7l-12.2-1.9l-1.7-5.1l-6.6-3.7l-6.4,1.6l-11-7.1l-4.1,1.2l0.1-4.5l-8.9-9.4l-4.9-0.4l-3.6-6l-0.8-12.6l7.9,2.6l3.9-5.4l5.4,2.1l2.6-9.4l-1.2-7.5l-11.5-1.4l-7.1-8.4l-3.4,1.8l-9.3-2.1l0-9l7,1.3l1.4-3.1l8.5-1.5l4-7.4 l-0.1-5.7l22.1,5.7l16.5-3.7l-1.4-5.8l-8.9-1.7l-3.2-9.1l-5.9,3.2l-1.6-1.3l-1.1-2.3l3.2-6.8l-1.3-7.1l-3.7-1.1l-4.7,4.8l-4.3-2.8 l1.1-4.2l-4.7-1.7l-1.2,3.1l-4.4-1.9l-0.5-5.3l-2.6-1.4l2.5-2.5l-0.7-10.9l-5.8-3.2l3.5-3.5l-9.4,0.3l4.6-14.2l-2.8-4.6l-6.6-3.2 l3.2-5.9l-1-2.8l-7.2,1.9l-3-1.5l3.4-5.7l-7-6l1.8-3.4l4.1,1l2.4,0.2l7.3-2.8l11.2,2.1l14.1-6.9l6.6,2.2l0.3,3.6l5.3-1.3l4.6,8.9 l37.9,6.1l8.2,16.3l-1.9,15.7l-3.7,6.4l13.2,5.9l1.8-2l2.4,2.9l4.2-3.1l7.2,6.6l8.2,1.2l1.9,2.7l-1.2,3.2l10.8,3.9l-4.4,4.1 l20.1-1.5l-2.2,7.2l3.8,7l13.4,2.3l7.5-5.6l6.3,0.2l22-11.9l11.6,10.1l-0.2,18.7l11.9,5.8l-0.1,5.1l10.9-5.6l1.4-4.9l2.4-1l10.9,0 l8.8,4l-0.3,3l7.5-1.1l2.9,3.5l4.1-3.8l8.7-0.3l25,10.7l3.3,5.4l17.7,8.9l4-3.8l8.9,2.6l6-3l-0.3-3.2l4.4-0.5l0.3-3.6l9.6-2 l3.4-7.3l4.1,0.2l2.3,17.9l8.3,6.1l10.9-0.9l1.1,4.9l5.4,0.3l3.3,3.1l2.2-8l11.4-4.3l9.2,2.5l5,4.3l2,0.4l1.3-1l3.9-0.7l-0.1-1.4 l5.2-3.4l5.1,3.4l0.4-1.1l2.8,0.8l2.7-7.5l7.8,4.3l0-2.9l4.6-3.7l4.5,9l7.5,3.4l0.7,3.6l3.7,0l0.5-3.6l7-6l0-13v-2l5.6,5.3l2.7-3.5 l7.3-1.9l0.2,2.6l-6.3,5.5l1.7,2.4l3.8-0.6l0.3,3.8l4.5,3.3l-4.4,3.7l0.8,2.5l3.5-0.8l2.8,3.6l-9,9.5l-8.1,3.8l-8.7,10.2l-3.8-0.3 l-2.8,4.9l-5.7-1.5l0.5,9.3l-3.5-0.4l-0.8,2l-2.1-2.9l-8.2,6.1l-1.4,14.4l-3,3.1l2.2,5.4l10.2,2.6l-3.2,3.1l3.1,1.8l-1.4,5.9 l3.9-0.2l3.3,6.2l10.2,4.5l-1.5,7.1l2.2,0.5l-3.9,6.1l1.7,6.6l4.3,4.3l-0.3,3.1l-5-0.7l-2.3-3.2l-0.4,2.2l-2-1.1l-0.1-2.9l-7-1.5l-3.1,4.2l-2.3-1.5l-1.8,6.7l-3.4,0.1l-2.9,4l-3.2-1.4l-2.6,5.2l0.8,3.6l2.7,0.8l-0.6,5.3l8.4,7.2l-3.9,5.7"/>
		<path id="IN-AS" class="land" fill="#CCCCCC" stroke="#FFFFFF" stroke-width="0.5" d="M1281,739.6l2.4,20.5l-10.1,4.6l0,0l1.8-11.3l-5.9-11.6 l1-6.7l-3.4-6.4l8.8-16.3l-4.5-0.8l-1.2-2.3l3.9-1.6l-4.2-4.5l0,3.9l-1.9-0.5l-2.2-7.2l-3,0.3l3-2.7l-0.7-3.8l-4.5-3l1.3-2.4 l-2.3-3.7l-3.7-1.4l0,0l1.8-1.2l-4.6-1.9l4.3-3.1l-4-0.7l3.7-2.8l-2.8-4.2l2.4,1.5l1.4-1.7l-2.3-4.6l4.7,2.2l-0.9-4.2l3.5-1.2 l0.1-3l8.7-4.1l-1.2-2.4l-2.3,0.8l5-8.4l-2.1-3.7l1.1-11.9l1.8-0.8l-2.4-5.2l2.2-3.4l-2.3-7.2l0,0l0.6-4.4l11.1,1.8"/>
	</g>
	<g>
		<defs>
			<amcharts:ammap bottomLatitude="20.740327" rightLongitude="92.674283" topLatitude="26.635149" leftLongitude="88.010067" projection="mercator"> </amcharts:ammap>
		</defs>
		<g>
			<path id="BD-C" class="land" fill="#CCCCCC" stroke="#FFFFFF" stroke-width="0.5" d="M1280.4,801.5l0-4.7l-4.5-0.2l-5.6-0.1l1.5-1.9l-2.9-5.9l0.9-7.5l0,0l-6.7-2.1l1.3,5.3l-6.8,4.3l3.7,9.1l-0.1,3.4"/>
			<path id="BD-E" class="land" fill="#CCCCCC" stroke="#FFFFFF" stroke-width="0.5" d="M1166.8,801.6l2.8-2l0,0"/>
			<path id="BD-F" class="land" fill="#CCCCCC" stroke="#FFFFFF" stroke-width="0.5" d="M1173.8,801.4l-4.2-1.8l0,0l3.3-0.5l0.5-2.6l-8.7-2l-1.3,1l-2.2-4.1l-2.1,1.7l-5.3-5.2l0.2-3.8l-3.3-2.1l2.4-2.2l0.2-5.8l-0.8-2.1l-2-0.2l-0.5-4.2l-5.6-0.2l0.7,3.8l-3.1,0.8l-0.5-2.1l-3.3,0.7l-1.4,3.5l-5.8-0.9l-0.2-2.3l-2.8-0.1l-1.8-2.3l-3.7,1l-2.9-1.6l-1.2,1.4l-1.1-4.3l-1.2,0.9l-3.1-3.2l0.4-3.1l-6.3-2l1.2-8.3l-5.8-1.1l-0.1-1.7l-3.7-1.6l0.4-2.3l-6.2-2.9l-6.4-5.8l-0.2-3.7l-3.6,0.2l-3.6,2.8l-2.6-1.7l-4.1,3.3l-1.2-2.6l-2.9-0.4l-1.5-3.8l1.3-3.5l-3.2-8.7l3-2.1l3.6-9.9l5.1-1.6l-1.6-1.1l1.5-4.7l-2.9-3.4l2.2-6.7l8.2-5.7l3.1,0.4l10-5.4l-0.1-8l4.4-4.2l3.1-0.3l-1.1-1.9l3.7-0.9l2.3-4.8l3.4,3.2l0.4-1.4l2.2-0.1l-0.4,1.6l2.2-1.6l-4.9-13.2l-7.2-0.5l-2.1-2.7l-4.3-0.2l-1.4,5.4l-3.5-3.3l6.1-16l4.1-5.4l2.7,11.5l1.7,1.4l1.4-1.5l2.8,0.8l0.9,3.6l3.6,1l0.2,3.2l4-0.9l-0.5,4.2l4.7,1l-0.2-2.9l3,0.1l0.5,4.7l5.4,3.7l4,2.5l-2.7,1l2.7,6l5.3-2.5l1.5,6.9l4.4-1.6l2.7,1.6l-0.3,5.4l3.3,3.3l3.5-0.6l-2-5l3.4-1.8l5.5,0.4l4.2,6.1l10-1.3l0.6-0.5l-0.5-5.1l-2.7,1.1l-1.1,0.6l-2.4-1.6l-2.4-1.5l1.9-3.1l-1.9-3.1l-2.7-0.3l-0.9-1.7l-4.8-0.4l-1-5.5l2.7-3.2l2.1-0.1l1.5-4.4l4,2.7l4.6,4.4l1.4,2.4l5.2-0.4l0.2,4.6l0.9,2.6l1.2,2.2l4.7,1.2l-4.2,5l4.5,6.1l1,3.5l-1.7,3.7l2.5,2.5l-0.3,2.4l4.4,2.7l3.8-0.1l5,4l-1.3,3.6l7.9,3.5l2.8,3.5l5.4,0.5l-0.2-1.7l3.8-3.3l1.1,4.8l4.7,1.5l7.5-1.1l1.3,0.7l1.8-1.2l1.5,1.3l-1.1-4.9l7.4-3.5l-2.4-5.7l-2.5,2.5l-1.7-1.7l0.6-1.6l2.1,0.8l1.7-1.6l-2.1-1l-0.8,1.3l-1.6-5.3l2.2,0.5l0.7-3.2l3.8,1.7l0.9-1.9l-3.4-0.9l2.7-0.5l-1.8-4.9l4.2,1.2l1-2.2l1.4,3.3l-2.1,1.2l3.4,3.9l-2.4,1.5l3.1,1l0.8-1.9l0.5,1.6l3.3-0.1l2.3,3.7l-1.4,2.4l3.3,0.5l-0.1,2.9l1.5-0.1l0.6,3.4l-1.8,0.4l0.2,1.9l2.7-0.3l3.5,4.3l-1,2.2l2.6,1.5l0-3.8l4.2,4.5l-4,1.6l1.2,2.3l4.6,0.8l-8.9,16l2.4,7.3l-1.4,5.6l2.8,2.3l-0.3,2.6l4,8.6l-1.5,10.3l-1.9,0.9l-0.1,9.4l-3.2,6.4l0,0l-6.7-2.1l0,0l0,0l0,0l1.3,5.3l0,0l0,0l0,0l-6.8,4.3l3.7,9.1l-0.1,3.4"/>
		</g>
	</g>
</svg>